<svg xmlns="http://www.w3.org/2000/svg" viewBox="0 0 800 200">
  <defs>
    <linearGradient id="bg" x1="0" y1="0" x2="1" y2="1">
      <stop offset="0%" stop-color="#0f0f1a"/>
      <stop offset="100%" stop-color="#1a1a2e"/>
    </linearGradient>
    <style>
      .title { font-family: 'Segoe UI', Arial, sans-serif; font-weight: 700; fill: #fdcb6e; }
      .subtitle { font-family: 'Segoe UI', Arial, sans-serif; font-weight: 400; fill: #a0a0b8; }
    </style>
  </defs>
  <!-- Fond -->
  <rect width="800" height="200" fill="url(#bg)" rx="8"/>
  <!-- Logo : urne -->
  <g transform="translate(80, 40)">
    <rect x="0" y="12" width="54" height="42" rx="4" fill="none" stroke="#fdcb6e" stroke-width="3"/>
    <rect x="5" y="6" width="44" height="6" rx="2" fill="#fdcb6e"/>
    <rect x="19" y="20" width="16" height="5" rx="1.5" fill="#fdcb6e"/>
    <!-- Bulletin -->
    <rect x="22" y="-4" width="10" height="12" rx="1" fill="#fdcb6e" opacity="0.7" transform="rotate(-10 27 2)"/>
    <!-- Loupe -->
    <circle cx="58" cy="22" r="15" fill="none" stroke="#fdcb6e" stroke-width="3"/>
    <line x1="69" y1="33" x2="80" y2="44" stroke="#fdcb6e" stroke-width="4" stroke-linecap="round"/>
  </g>
  <!-- Ligne séparatrice -->
  <line x1="210" y1="45" x2="210" y2="155" stroke="#fdcb6e" stroke-width="1" opacity="0.3"/>
  <!-- Texte principal -->
  <text x="250" y="95" class="title" font-size="48">nos-elus.com</text>
  <!-- Sous-titre -->
  <text x="250" y="130" class="subtitle" font-size="22">Plateforme citoyenne</text>
  <!-- Ligne décorative sous titre -->
  <line x1="250" y1="140" x2="470" y2="140" stroke="#fdcb6e" stroke-width="1" opacity="0.25"/>
  <!-- Drapeau francais -->
  <g transform="translate(700, 70)">
    <rect x="0" y="0" width="16" height="36" rx="1" fill="#002395"/>
    <rect x="16" y="0" width="16" height="36" fill="#ffffff"/>
    <rect x="32" y="0" width="16" height="36" rx="1" fill="#ed2939"/>
    <!-- Mat -->
    <line x1="0" y1="0" x2="0" y2="50" stroke="#a0a0b8" stroke-width="1.5"/>
    <circle cx="0" cy="-2" r="2" fill="#fdcb6e"/>
  </g>
</svg>