<?xml version="1.0" encoding="utf-8"?>
<!-- Generator: Adobe Illustrator 26.3.1, SVG Export Plug-In . SVG Version: 6.00 Build 0)  -->
<svg version="1.2" baseProfile="tiny" xmlns="http://www.w3.org/2000/svg" xmlns:xlink="http://www.w3.org/1999/xlink" x="0px"
	 y="0px" viewBox="0 0 400 50" overflow="visible" xml:space="preserve">
<g id="Calque_2" display="none">
	<rect x="-3.03" y="-7.27" display="inline" width="406.87" height="63.46"/>
</g>
<g id="Calque_1">
	<rect x="13.85" y="27.89" fill="#000091" width="126.04" height="18.05"/>
	<rect x="266.8" y="27.89" fill="#E1000F" width="126.04" height="18.05"/>
	<rect x="140.76" y="27.89" fill="#FFFFFF" width="126.04" height="18.05"/>
	<rect x="50.24" y="5.13" fill="none" width="290.75" height="26.6"/>
	<text transform="matrix(1 0 0 1 86.2479 22.1689)" fill="#FFFFFF" font-family="'MyriadPro-Regular'" font-size="24px">F</text>
	<text transform="matrix(1 0 0 1 96.0638 22.1689)" fill="#FFFFFF" font-family="'MyriadPro-Regular'" font-size="24px">A</text>
	<text transform="matrix(1 0 0 1 110.7513 22.1689)" fill="#FFFFFF" font-family="'MyriadPro-Regular'" font-size="24px">B</text>
	<text transform="matrix(1 0 0 1 123.7591 22.1689)" fill="#FFFFFF" font-family="'MyriadPro-Regular'" font-size="24px">R</text>
	<text transform="matrix(1 0 0 1 136.6713 22.1689)" fill="#FFFFFF" font-family="'MyriadPro-Regular'" font-size="24px">I</text>
	<text transform="matrix(1 0 0 1 142.4076 22.1689)" fill="#FFFFFF" font-family="'MyriadPro-Regular'" font-size="24px">Q</text>
	<text transform="matrix(1 0 0 1 158.9437 22.1689)" fill="#FFFFFF" font-family="'MyriadPro-Regular'" font-size="24px">U</text>
	<text transform="matrix(1 0 0 1 174.4711 22.1689)" fill="#FFFFFF" font-family="'MyriadPro-Regular'" font-size="24px">É</text>
	<text transform="matrix(1 0 0 1 186.2787 22.1689)" fill="#FFFFFF" font-family="'MyriadPro-Regular'" font-size="24px"> </text>
	<text transform="matrix(1 0 0 1 191.3666 22.1689)" fill="#FFFFFF" font-family="'MyriadPro-Regular'" font-size="24px">E</text>
	<text transform="matrix(1 0 0 1 203.1742 22.1689)" fill="#FFFFFF" font-family="'MyriadPro-Regular'" font-size="24px">N</text>
	<text transform="matrix(1 0 0 1 218.9662 22.1689)" fill="#FFFFFF" font-family="'MyriadPro-Regular'" font-size="24px"> </text>
	<text transform="matrix(1 0 0 1 224.0541 22.1689)" fill="#FFFFFF" font-family="'MyriadPro-Regular'" font-size="24px">F</text>
	<text transform="matrix(1 0 0 1 235.7416 22.1689)" fill="#FFFFFF" font-family="'MyriadPro-Regular'" font-size="24px">R</text>
	<text transform="matrix(1 0 0 1 248.7738 22.1689)" fill="#FFFFFF" font-family="'MyriadPro-Regular'" font-size="24px">A</text>
	<text transform="matrix(1 0 0 1 263.4613 22.1689)" fill="#FFFFFF" font-family="'MyriadPro-Regular'" font-size="24px">N</text>
	<text transform="matrix(1 0 0 1 279.2533 22.1689)" fill="#FFFFFF" font-family="'MyriadPro-Regular'" font-size="24px">C</text>
	<text transform="matrix(1 0 0 1 293.1732 22.1689)" fill="#FFFFFF" font-family="'MyriadPro-Regular'" font-size="24px">E</text>
</g>
</svg>
